<svg width="0" height="0" style="position: absolute; visibility: hidden;" xmlns="http://www.w3.org/2000/svg">
  <!-- Search icon -->
  <symbol id="search" viewBox="0 0 20 20">
    <path d="M14.5656 16.0023C10.5704 19.1859 4.98549 18.3049 2.02729 14.6536C-0.827886 11.1285 -0.64932 6.04314 2.44811 2.82458C5.64856 -0.50074 10.6802 -0.944658 14.3277 1.78316C15.6345 2.76027 16.6104 4.00337 17.246 5.50807C17.8853 7.02151 18.0795 8.59614 17.8578 10.2201C17.6368 11.8365 16.9918 13.2769 15.9423 14.6212C16.0272 14.6767 16.1178 14.7167 16.1827 14.7816C17.3365 15.9305 18.4859 17.0836 19.6397 18.2325C19.9132 18.5047 20.0493 18.8218 19.9682 19.204C19.8071 19.9644 18.9018 20.2579 18.3211 19.7359C18.0489 19.4918 17.7985 19.2227 17.54 18.9642C16.5923 18.0171 15.6451 17.0693 14.6973 16.1221C14.658 16.0847 14.6168 16.0497 14.5656 16.0023ZM15.9529 8.98636C15.9629 5.12659 12.8468 2.00605 8.97825 2.00043C5.12035 1.99481 2.00669 5.09037 1.98983 8.94765C1.97297 12.8168 5.08289 15.9461 8.96326 15.9642C12.8055 15.9823 15.9429 12.8499 15.9529 8.98636Z" fill="currentColor"/>
  </symbol>

  <!-- Cart icon -->
  <symbol id="cart" viewBox="0 0 20 20">
    <path d="M14.294 16.8745H8.24077C5.65655 16.8745 3.55412 14.7721 3.55412 12.1879V7.38405C3.55412 4.98175 2.35676 2.75813 0.351225 1.4358C-0.00894369 1.19834 -0.108379 0.713895 0.129078 0.353726C0.366535 -0.00648163 0.850939 -0.105956 1.21119 0.131579C2.35606 0.886442 3.28487 1.88204 3.94905 3.02832C4.09258 3.18911 5.24995 4.41584 7.14726 4.41584H16.142C18.596 4.36995 20.5168 6.83267 19.8752 9.20138L18.8397 13.3284C18.3159 15.4163 16.4466 16.8745 14.294 16.8745ZM4.91926 5.53677C5.04912 6.1367 5.11634 6.7553 5.11634 7.38405V12.1879C5.11634 13.9107 6.51796 15.3123 8.24077 15.3123H14.294C15.7291 15.3123 16.9752 14.3401 17.3245 12.9482L18.3599 8.82121C18.7412 7.41373 17.5997 5.95084 16.142 5.97806H7.14722C6.28913 5.97806 5.54224 5.79305 4.91926 5.53677ZM7.85021 19.0226C7.85021 18.4833 7.41307 18.0462 6.87383 18.0462C5.57828 18.0978 5.57942 19.9479 6.87383 19.999C7.41307 19.999 7.85021 19.5618 7.85021 19.0226ZM15.6222 19.0226C15.6222 18.4833 15.1851 18.0462 14.6459 18.0462C13.3503 18.0978 13.3514 19.9479 14.6459 19.999C15.1851 19.999 15.6222 19.5618 15.6222 19.0226ZM16.9231 8.32138C16.9231 7.88998 16.5734 7.54027 16.142 7.54027H7.45966C6.42329 7.58152 6.42407 9.0616 7.45966 9.10249H16.142C16.5734 9.10249 16.9231 8.75279 16.9231 8.32138Z" fill="currentColor"/>
  </symbol>

  <!-- Heart icon -->
  <symbol id="heart" viewBox="0 0 20 20">
    <path d="M10 18.8873C9.71527 18.8873 9.44077 18.7842 9.22684 18.5968C8.41888 17.8903 7.63992 17.2264 6.95267 16.6408L6.94916 16.6377C4.93423 14.9207 3.19427 13.4378 1.98364 11.9771C0.630341 10.3441 0 8.79578 0 7.10434C0 5.46097 0.563507 3.94485 1.58661 2.83508C2.62192 1.71219 4.04251 1.09375 5.58716 1.09375C6.74164 1.09375 7.79892 1.45874 8.72955 2.1785C9.19922 2.54181 9.62494 2.98645 10 3.5051C10.3752 2.98645 10.8008 2.54181 11.2706 2.1785C12.2012 1.45874 13.2585 1.09375 14.413 1.09375C15.9575 1.09375 17.3782 1.71219 18.4135 2.83508C19.4366 3.94485 20 5.46097 20 7.10434C20 8.79578 19.3698 10.3441 18.0165 11.9769C16.8059 13.4378 15.0661 14.9205 13.0515 16.6374C12.363 17.224 11.5828 17.8889 10.773 18.5971C10.5592 18.7842 10.2846 18.8873 10 18.8873ZM5.58716 2.26532C4.37363 2.26532 3.25882 2.74963 2.44781 3.62915C1.62476 4.52194 1.17142 5.75607 1.17142 7.10434C1.17142 8.52692 1.70013 9.79919 2.88559 11.2296C4.03137 12.6122 5.73563 14.0645 7.70889 15.7462L7.71255 15.7492C8.4024 16.3371 9.18442 17.0036 9.99832 17.7153C10.8171 17.0023 11.6003 16.3347 12.2916 15.7458C14.2647 14.0642 15.9688 12.6122 17.1146 11.2296C18.2999 9.79919 18.8286 8.52692 18.8286 7.10434C18.8286 5.75607 18.3752 4.52194 17.5522 3.62915C16.7413 2.74963 15.6264 2.26532 14.413 2.26532C13.524 2.26532 12.7078 2.54791 11.9872 3.10516C11.3449 3.60199 10.8975 4.23004 10.6352 4.66949C10.5003 4.89548 10.2629 5.03036 10 5.03036C9.73709 5.03036 9.49966 4.89548 9.36478 4.66949C9.10263 4.23004 8.65524 3.60199 8.01285 3.10516C7.29218 2.54791 6.47598 2.26532 5.58716 2.26532Z" fill="currentColor"/>
  </symbol>

  <!-- Arrow right -->
  <symbol id="arrow-right" viewBox="0 0 8 12">
    <path d="M1.375 0.75C1.375 0.75 6.625 3.858 6.625 6C6.625 8.14125 1.375 11.25 1.375 11.25" stroke="currentColor" stroke-width="1.5" stroke-linecap="round" stroke-linejoin="round"/>
  </symbol>

  <!-- Arrow down -->
  <symbol id="arrow-down" viewBox="0 0 16 16">
    <path d="M12.6667 5.66669L8.00004 10.3334L3.33337 5.66669" stroke="currentColor" stroke-width="1.5" stroke-linecap="round" stroke-linejoin="round"/>
  </symbol>

  <!-- Facebook icon -->
  <symbol id="facebook" viewBox="0 0 16 16">
    <path d="M16 8.048C16 3.603 12.418 0 8 0S0 3.604 0 8.048c0 4.017 2.926 7.347 6.75 7.951v-5.625h-2.03V8.048H6.75V6.276c0-2.017 1.195-3.131 3.022-3.131.875 0 1.79.157 1.79.157v1.98h-1.009c-.994 0-1.303.621-1.303 1.258v1.51h2.219l-.355 2.326H9.25V16c3.824-.604 6.75-3.934 6.75-7.952z" fill="currentColor"/>
  </symbol>

  <!-- Instagram icon -->
  <symbol id="instagram" viewBox="0 0 16 16">
    <path d="M8 1.441c2.136 0 2.389.009 3.233.047.78.036 1.204.166 1.486.275.374.145.64.318.92.598.28.28.453.546.598.92.109.282.24.706.275 1.486.038.844.047 1.097.047 3.233s-.009 2.389-.047 3.233c-.036.78-.166 1.204-.275 1.486a2.476 2.476 0 01-.598.92c-.28.28-.546.453-.92.598-.282.109-.706.24-1.486.275-.844.038-1.097.047-3.233.047s-2.389-.009-3.233-.047c-.78-.036-1.204-.166-1.486-.275a2.476 2.476 0 01-.92-.598 2.476 2.476 0 01-.598-.92c-.109-.282-.24-.706-.275-1.486C1.45 10.389 1.441 10.136 1.441 8s.009-2.389.047-3.233c.036-.78.166-1.204.275-1.486.145-.374.318-.64.598-.92.28-.28.546-.453.92-.598.282-.109.706-.24 1.486-.275C5.611 1.45 5.864 1.441 8 1.441zM8 0C5.827 0 5.555.01 4.702.048 3.85.088 3.269.222 2.76.42a3.917 3.917 0 00-1.417.923A3.917 3.917 0 00.42 2.76C.222 3.268.087 3.85.048 4.7.01 5.555 0 5.827 0 8s.01 2.445.048 3.298c.04.852.174 1.433.372 1.942.205.526.478.972.923 1.417.444.445.89.718 1.417.923.51.198 1.09.333 1.942.372C5.555 15.99 5.827 16 8 16s2.445-.01 3.298-.048c.852-.04 1.433-.174 1.942-.372a3.917 3.917 0 001.417-.923c.445-.445.718-.891.923-1.417.198-.51.333-1.09.372-1.942C15.99 10.445 16 10.173 16 8s-.01-2.445-.048-3.298c-.04-.852-.174-1.433-.372-1.942a3.917 3.917 0 00-.923-1.417A3.917 3.917 0 0013.24.42c-.51-.198-1.09-.333-1.942-.372C10.445.01 10.173 0 8 0z" fill="currentColor"/>
    <path d="M8 3.892a4.108 4.108 0 100 8.216 4.108 4.108 0 000-8.216zM8 10.667a2.667 2.667 0 110-5.334 2.667 2.667 0 010 5.334zM13.23 3.73a.96.96 0 11-1.92 0 .96.96 0 011.92 0z" fill="currentColor"/>
  </symbol>

  <!-- Twitter icon -->
  <symbol id="twitter" viewBox="0 0 16 16">
    <path d="M5.026 15c6.038 0 9.341-5.003 9.341-9.334 0-.14 0-.282-.006-.422A6.685 6.685 0 0016 3.542a6.658 6.658 0 01-1.889.518 3.301 3.301 0 001.447-1.817 6.533 6.533 0 01-2.087.793A3.286 3.286 0 007.875 6.03a9.325 9.325 0 01-6.767-3.429 3.289 3.289 0 001.018 4.382A3.323 3.323 0 01.64 6.575v.045a3.288 3.288 0 002.632 3.218 3.203 3.203 0 01-.865.115 3.23 3.23 0 01-.614-.057 3.283 3.283 0 003.067 2.277A6.588 6.588 0 01.78 13.58a6.32 6.32 0 01-.78-.045A9.344 9.344 0 005.026 15z" fill="currentColor"/>
  </symbol>

  <!-- LinkedIn icon -->
  <symbol id="linkedin" viewBox="0 0 16 16">
    <path d="M0 1.146C0 .513.526 0 1.175 0h13.65C15.474 0 16 .513 16 1.146v13.708c0 .633-.526 1.146-1.175 1.146H1.175C.526 16 0 15.487 0 14.854V1.146zm4.943 12.248V6.169H2.542v7.225h2.401zm-1.2-8.212c.837 0 1.358-.554 1.358-1.248-.015-.709-.52-1.248-1.342-1.248-.822 0-1.359.54-1.359 1.248 0 .694.521 1.248 1.327 1.248h.016zm4.908 8.212V9.359c0-.216.016-.432.08-.586.173-.431.568-.878 1.232-.878.869 0 1.216.662 1.216 1.634v3.865h2.401V9.25c0-2.22-1.184-3.252-2.764-3.252-1.274 0-1.845.7-2.165 1.193v.025h-.025a5.54 5.54 0 01.025-.025V6.169h-2.4c.03.678 0 7.225 0 7.225h2.4z" fill="currentColor"/>
  </symbol>

  <!-- YouTube icon -->
  <symbol id="youtube" viewBox="0 0 16 16">
    <path d="M8.051 1.999h.089c.822.003 4.987.033 6.11.335a2.01 2.01 0 011.415 1.42c.101.38.172.883.22 1.402l.01.104.022.26.008.104c.065.914.073 1.77.074 1.957v.075c-.001.194-.01 1.108-.082 2.06l-.008.105-.009.104c-.05.572-.124 1.14-.235 1.558a2.007 2.007 0 01-1.415 1.42c-1.16.312-5.569.334-6.18.335h-.142c-.309 0-1.587-.006-2.927-.052l-.17-.006-.087-.004-.171-.007-.171-.007c-1.11-.049-2.167-.128-2.654-.26a2.007 2.007 0 01-1.415-1.419c-.111-.417-.185-.986-.235-1.558L.09 9.82l-.008-.104A31.4 31.4 0 010 7.68v-.123c.002-.215.01-.958.064-1.778l.007-.103.003-.052.008-.104.022-.26.01-.104c.048-.519.119-1.023.22-1.402a2.007 2.007 0 011.415-1.42c.487-.13 1.544-.21 2.654-.26l.17-.007.172-.006.086-.003.171-.007A99.788 99.788 0 017.858 2h.193zM6.4 5.209v4.818l4.157-2.408L6.4 5.209z" fill="currentColor"/>
  </symbol>

  <!-- Location icon -->
  <symbol id="location" viewBox="0 0 16 20">
    <path d="M8 0C3.589 0 0 3.589 0 8c0 5.25 8 12 8 12s8-6.75 8-12c0-4.411-3.589-8-8-8zm0 10.5a2.5 2.5 0 110-5 2.5 2.5 0 010 5z" fill="currentColor"/>
  </symbol>

  <!-- Email icon -->
  <symbol id="email" viewBox="0 0 20 16">
    <path d="M18 0H2C.9 0 0 .9 0 2v12c0 1.1.9 2 2 2h16c1.1 0 2-.9 2-2V2c0-1.1-.9-2-2-2zM18 4l-8 5-8-5V2l8 5 8-5v2z" fill="currentColor"/>
  </symbol>

  <!-- Phone icon -->
  <symbol id="phone" viewBox="0 0 16 16">
    <path d="M3.654 1.328a.678.678 0 00-1.015-.063L1.605 2.3c-.483.484-.661 1.169-.45 1.77a17.568 17.568 0 004.168 6.608 17.569 17.569 0 006.608 4.168c.601.211 1.286.033 1.77-.45l1.034-1.034a.678.678 0 00-.063-1.015l-2.307-1.794a.678.678 0 00-.58-.122l-2.19.547a1.745 1.745 0 01-1.657-.459L5.482 8.062a1.745 1.745 0 01-.46-1.657l.548-2.19a.678.678 0 00-.122-.58L3.654 1.328z" fill="currentColor"/>
  </symbol>
</svg> 